<svg width="50" height="50" viewBox="0 0 50 50" fill="none" xmlns="http://www.w3.org/2000/svg">
<path d="M49.7251 22.815L24.9876 0L0.2509 22.815C0.0937638 22.9721 0.00390104 23.1835 0.000124046 23.4049C-0.00365295 23.6263 0.0789487 23.8406 0.230636 24.0029C0.382324 24.1652 0.591337 24.2629 0.813918 24.2756C1.0365 24.2883 1.25539 24.2149 1.42477 24.0709L4.28743 21.4307V50H45.6877V21.4298L48.5504 24.0701C48.7098 24.2176 48.9198 24.2994 49.1378 24.2988C49.311 24.2988 49.4801 24.2469 49.6232 24.15C49.7664 24.0531 49.8768 23.9157 49.9402 23.7556C50.0036 23.5955 50.0169 23.4202 49.9786 23.2524C49.9402 23.0846 49.8519 22.9322 49.7251 22.815ZM19.8125 48.2866V34.5798C19.8125 31.7451 22.1335 29.4397 24.9876 29.4397C27.8416 29.4397 30.1626 31.7451 30.1626 34.5798V48.2866H19.8125ZM43.9627 48.2866H31.8876V34.5798C31.8876 30.801 28.7921 27.7264 24.9876 27.7264C21.1831 27.7264 18.0875 30.801 18.0875 34.5798V48.2866H6.01244V19.8389L24.9876 2.33787L43.9627 19.8389V48.2866Z" fill="black"/>
</svg>
