<svg width="50" height="50" viewBox="0 0 50 50" fill="none" xmlns="http://www.w3.org/2000/svg">
<path d="M25 0C11.2144 0 0 11.2144 0 25C0 38.7856 11.2144 50 25 50C38.7856 50 50 38.7856 50 25C50 11.2144 38.7856 0 25 0ZM25 48.0769C12.276 48.0769 1.92308 37.724 1.92308 25C1.92308 12.276 12.276 1.92308 25 1.92308C37.724 1.92308 48.0769 12.276 48.0769 25C48.0769 37.724 37.724 48.0769 25 48.0769Z" fill="black"/>
<path d="M25.0009 35.5769C24.7459 35.5769 24.5013 35.6782 24.321 35.8585C24.1407 36.0389 24.0394 36.2834 24.0394 36.5385V38.4615C24.0394 38.7166 24.1407 38.9611 24.321 39.1414C24.5013 39.3218 24.7459 39.4231 25.0009 39.4231C25.2559 39.4231 25.5005 39.3218 25.6808 39.1414C25.8612 38.9611 25.9625 38.7166 25.9625 38.4615V36.5385C25.9625 36.2834 25.8612 36.0389 25.6808 35.8585C25.5005 35.6782 25.2559 35.5769 25.0009 35.5769ZM25.1096 8.6548L24.999 8.65384C22.9769 8.64798 21.0351 9.44475 19.6 10.8692C18.8718 11.583 18.294 12.4353 17.9004 13.376C17.5069 14.3166 17.3057 15.3265 17.3086 16.3461C17.3086 16.6012 17.4099 16.8457 17.5903 17.0261C17.7706 17.2064 18.0151 17.3077 18.2702 17.3077C18.5252 17.3077 18.7698 17.2064 18.9501 17.0261C19.1304 16.8457 19.2317 16.6012 19.2317 16.3461C19.2317 14.7904 19.8423 13.3308 20.95 12.2385C22.0586 11.1452 23.5346 10.5413 25.0836 10.5779C28.123 10.6202 30.7269 13.224 30.7692 16.2635C30.7859 17.2433 30.5517 18.2112 30.0886 19.0749C29.6256 19.9387 28.9493 20.6696 28.124 21.1981C25.5663 22.8481 24.0394 25.7635 24.0394 28.9981V31.7308C24.0394 31.9858 24.1407 32.2304 24.321 32.4107C24.5013 32.591 24.7459 32.6923 25.0009 32.6923C25.2559 32.6923 25.5005 32.591 25.6808 32.4107C25.8612 32.2304 25.9625 31.9858 25.9625 31.7308V28.9981C25.9625 26.4577 27.1894 24.0894 29.1663 22.8135C30.2664 22.1092 31.168 21.1351 31.7851 19.9838C32.4023 18.8326 32.7146 17.5426 32.6923 16.2365C32.6346 12.1144 29.2327 8.71249 25.1096 8.6548Z" fill="black"/>
</svg>
