<svg width="50" height="50" viewBox="0 0 50 50" fill="none" xmlns="http://www.w3.org/2000/svg">
<g clip-path="url(#clip0_967_2)">
<path d="M50 46.0449L35.2388 31.2837C37.689 28.0139 39.1594 23.9702 39.1594 19.5797C39.1594 8.78289 30.3765 0 19.5797 0C8.78289 0 0 8.78289 0 19.5797C0 30.3765 8.78289 39.1594 19.5797 39.1594C23.9702 39.1594 28.0139 37.689 31.2837 35.2388L46.0449 50L50 46.0449ZM1.86473 19.5797C1.86473 9.81129 9.81129 1.86473 19.5797 1.86473C29.3481 1.86473 37.2946 9.81129 37.2946 19.5797C37.2946 29.3481 29.3481 37.2946 19.5797 37.2946C9.81129 37.2946 1.86473 29.3481 1.86473 19.5797ZM33.1615 33.6519C33.3274 33.4915 33.4906 33.3284 33.651 33.1624C33.7871 33.0216 33.9344 32.892 34.0659 32.7475L47.3633 46.0449L46.044 47.3642L32.7475 34.0659C32.892 33.9344 33.0207 33.7871 33.1615 33.6519Z" fill="black"/>
</g>
<defs>
<clipPath id="clip0_967_2">
<rect width="50" height="50" fill="white"/>
</clipPath>
</defs>
</svg>
