<svg xmlns="http://www.w3.org/2000/svg" width="1190" height="1064" viewBox="0 0 1190 1064"><g><g opacity=".5"><path fill="#80b7b3" d="M677.247 491.04c5.858-5.858 15.355-5.858 21.213 0 5.858 5.858 5.858 15.355 0 21.213-5.858 5.858-15.355 5.858-21.213 0-5.858-5.858-5.858-15.355 0-21.213zM.807 1060.864L778.842 282.83c-5.449-5.884-5.313-15.072.406-20.791 5.72-5.72 14.908-5.855 20.791-.407l201.326-201.325 2.828 2.828L802.598 264.73c3.602 5.787 2.89 13.496-2.138 18.523-5.027 5.027-12.735 5.74-18.523 2.138l-778.3 778.301zm187.83-57.172l-2.83-2.828L1186.365.308l2.828 2.828L188.636 1003.692"/></g></g></svg>